<mxfile host="65bd71144e">
    <diagram id="vXErl2dEVV9vRQu1akpw" name="Página-1">
        <mxGraphModel dx="703" dy="494" grid="1" gridSize="10" guides="1" tooltips="1" connect="1" arrows="1" fold="1" page="1" pageScale="1" pageWidth="827" pageHeight="1169" math="0" shadow="0">
            <root>
                <mxCell id="0"/>
                <mxCell id="1" parent="0"/>
                <mxCell id="2" value="Customer" style="swimlane;fontStyle=0;childLayout=stackLayout;horizontal=1;startSize=26;fillColor=none;horizontalStack=0;resizeParent=1;resizeParentMax=0;resizeLast=0;collapsible=1;marginBottom=0;" vertex="1" parent="1">
                    <mxGeometry x="10" y="50" width="140" height="156" as="geometry"/>
                </mxCell>
                <mxCell id="3" value="_id: Objectid" style="text;strokeColor=none;fillColor=none;align=left;verticalAlign=top;spacingLeft=4;spacingRight=4;overflow=hidden;rotatable=0;points=[[0,0.5],[1,0.5]];portConstraint=eastwest;" vertex="1" parent="2">
                    <mxGeometry y="26" width="140" height="26" as="geometry"/>
                </mxCell>
                <mxCell id="4" value="name: String" style="text;strokeColor=none;fillColor=none;align=left;verticalAlign=top;spacingLeft=4;spacingRight=4;overflow=hidden;rotatable=0;points=[[0,0.5],[1,0.5]];portConstraint=eastwest;" vertex="1" parent="2">
                    <mxGeometry y="52" width="140" height="26" as="geometry"/>
                </mxCell>
                <mxCell id="5" value="phone: String" style="text;strokeColor=none;fillColor=none;align=left;verticalAlign=top;spacingLeft=4;spacingRight=4;overflow=hidden;rotatable=0;points=[[0,0.5],[1,0.5]];portConstraint=eastwest;" vertex="1" parent="2">
                    <mxGeometry y="78" width="140" height="26" as="geometry"/>
                </mxCell>
                <mxCell id="6" value="id_document: String" style="text;strokeColor=none;fillColor=none;align=left;verticalAlign=top;spacingLeft=4;spacingRight=4;overflow=hidden;rotatable=0;points=[[0,0.5],[1,0.5]];portConstraint=eastwest;" vertex="1" parent="2">
                    <mxGeometry y="104" width="140" height="26" as="geometry"/>
                </mxCell>
                <mxCell id="7" value="address: String" style="text;strokeColor=none;fillColor=none;align=left;verticalAlign=top;spacingLeft=4;spacingRight=4;overflow=hidden;rotatable=0;points=[[0,0.5],[1,0.5]];portConstraint=eastwest;" vertex="1" parent="2">
                    <mxGeometry y="130" width="140" height="26" as="geometry"/>
                </mxCell>
                <mxCell id="8" value="Sale" style="swimlane;fontStyle=0;childLayout=stackLayout;horizontal=1;startSize=26;fillColor=none;horizontalStack=0;resizeParent=1;resizeParentMax=0;resizeLast=0;collapsible=1;marginBottom=0;" vertex="1" parent="1">
                    <mxGeometry x="290" y="46" width="140" height="130" as="geometry"/>
                </mxCell>
                <mxCell id="9" value="_id: Objectid" style="text;strokeColor=none;fillColor=none;align=left;verticalAlign=top;spacingLeft=4;spacingRight=4;overflow=hidden;rotatable=0;points=[[0,0.5],[1,0.5]];portConstraint=eastwest;" vertex="1" parent="8">
                    <mxGeometry y="26" width="140" height="26" as="geometry"/>
                </mxCell>
                <mxCell id="10" value="datetime: DateTime" style="text;strokeColor=none;fillColor=none;align=left;verticalAlign=top;spacingLeft=4;spacingRight=4;overflow=hidden;rotatable=0;points=[[0,0.5],[1,0.5]];portConstraint=eastwest;" vertex="1" parent="8">
                    <mxGeometry y="52" width="140" height="26" as="geometry"/>
                </mxCell>
                <mxCell id="37" value="number: Number" style="text;strokeColor=none;fillColor=none;align=left;verticalAlign=top;spacingLeft=4;spacingRight=4;overflow=hidden;rotatable=0;points=[[0,0.5],[1,0.5]];portConstraint=eastwest;" vertex="1" parent="8">
                    <mxGeometry y="78" width="140" height="26" as="geometry"/>
                </mxCell>
                <mxCell id="11" value="customer_id: Objectid " style="text;strokeColor=none;fillColor=none;align=left;verticalAlign=top;spacingLeft=4;spacingRight=4;overflow=hidden;rotatable=0;points=[[0,0.5],[1,0.5]];portConstraint=eastwest;" vertex="1" parent="8">
                    <mxGeometry y="104" width="140" height="26" as="geometry"/>
                </mxCell>
                <mxCell id="13" value="n" style="endArrow=open;html=1;endSize=12;startArrow=diamondThin;startSize=14;startFill=1;align=left;verticalAlign=bottom;entryX=1.01;entryY=0.049;entryDx=0;entryDy=0;entryPerimeter=0;exitX=0.01;exitY=0.085;exitDx=0;exitDy=0;exitPerimeter=0;" edge="1" parent="1" source="8" target="2">
                    <mxGeometry x="-0.9083" y="-9" relative="1" as="geometry">
                        <mxPoint x="490" y="290" as="sourcePoint"/>
                        <mxPoint x="330" y="290" as="targetPoint"/>
                        <mxPoint as="offset"/>
                    </mxGeometry>
                </mxCell>
                <mxCell id="14" value="Product" style="swimlane;fontStyle=0;childLayout=stackLayout;horizontal=1;startSize=26;fillColor=none;horizontalStack=0;resizeParent=1;resizeParentMax=0;resizeLast=0;collapsible=1;marginBottom=0;" vertex="1" parent="1">
                    <mxGeometry x="539" y="319" width="140" height="156" as="geometry"/>
                </mxCell>
                <mxCell id="15" value="_id: Objectid" style="text;strokeColor=none;fillColor=none;align=left;verticalAlign=top;spacingLeft=4;spacingRight=4;overflow=hidden;rotatable=0;points=[[0,0.5],[1,0.5]];portConstraint=eastwest;" vertex="1" parent="14">
                    <mxGeometry y="26" width="140" height="26" as="geometry"/>
                </mxCell>
                <mxCell id="16" value="description: String" style="text;strokeColor=none;fillColor=none;align=left;verticalAlign=top;spacingLeft=4;spacingRight=4;overflow=hidden;rotatable=0;points=[[0,0.5],[1,0.5]];portConstraint=eastwest;" vertex="1" parent="14">
                    <mxGeometry y="52" width="140" height="26" as="geometry"/>
                </mxCell>
                <mxCell id="17" value="unit: String" style="text;strokeColor=none;fillColor=none;align=left;verticalAlign=top;spacingLeft=4;spacingRight=4;overflow=hidden;rotatable=0;points=[[0,0.5],[1,0.5]];portConstraint=eastwest;" vertex="1" parent="14">
                    <mxGeometry y="78" width="140" height="26" as="geometry"/>
                </mxCell>
                <mxCell id="18" value="price: Number&#10;" style="text;strokeColor=none;fillColor=none;align=left;verticalAlign=top;spacingLeft=4;spacingRight=4;overflow=hidden;rotatable=0;points=[[0,0.5],[1,0.5]];portConstraint=eastwest;" vertex="1" parent="14">
                    <mxGeometry y="104" width="140" height="26" as="geometry"/>
                </mxCell>
                <mxCell id="40" value="supplier_id: Objectid" style="text;strokeColor=none;fillColor=none;align=left;verticalAlign=top;spacingLeft=4;spacingRight=4;overflow=hidden;rotatable=0;points=[[0,0.5],[1,0.5]];portConstraint=eastwest;" vertex="1" parent="14">
                    <mxGeometry y="130" width="140" height="26" as="geometry"/>
                </mxCell>
                <mxCell id="19" value="SaleItem" style="swimlane;fontStyle=0;childLayout=stackLayout;horizontal=1;startSize=26;fillColor=none;horizontalStack=0;resizeParent=1;resizeParentMax=0;resizeLast=0;collapsible=1;marginBottom=0;" vertex="1" parent="1">
                    <mxGeometry x="304" y="320" width="140" height="104" as="geometry"/>
                </mxCell>
                <mxCell id="21" value="order: Number" style="text;strokeColor=none;fillColor=none;align=left;verticalAlign=top;spacingLeft=4;spacingRight=4;overflow=hidden;rotatable=0;points=[[0,0.5],[1,0.5]];portConstraint=eastwest;" vertex="1" parent="19">
                    <mxGeometry y="26" width="140" height="26" as="geometry"/>
                </mxCell>
                <mxCell id="38" value="quantity: Number" style="text;strokeColor=none;fillColor=none;align=left;verticalAlign=top;spacingLeft=4;spacingRight=4;overflow=hidden;rotatable=0;points=[[0,0.5],[1,0.5]];portConstraint=eastwest;" vertex="1" parent="19">
                    <mxGeometry y="52" width="140" height="26" as="geometry"/>
                </mxCell>
                <mxCell id="22" value="product_id: Objectid&#10;" style="text;strokeColor=none;fillColor=none;align=left;verticalAlign=top;spacingLeft=4;spacingRight=4;overflow=hidden;rotatable=0;points=[[0,0.5],[1,0.5]];portConstraint=eastwest;" vertex="1" parent="19">
                    <mxGeometry y="78" width="140" height="26" as="geometry"/>
                </mxCell>
                <mxCell id="24" value="n" style="endArrow=open;html=1;endSize=12;startArrow=diamondThin;startSize=14;startFill=1;align=left;verticalAlign=bottom;entryX=0.473;entryY=1;entryDx=0;entryDy=0;entryPerimeter=0;exitX=0.371;exitY=-0.018;exitDx=0;exitDy=0;exitPerimeter=0;" edge="1" parent="1" source="19" target="11">
                    <mxGeometry x="-0.9035" y="-8" relative="1" as="geometry">
                        <mxPoint x="290" y="272.1052631578948" as="sourcePoint"/>
                        <mxPoint x="460" y="160" as="targetPoint"/>
                        <mxPoint as="offset"/>
                    </mxGeometry>
                </mxCell>
                <mxCell id="25" value="n" style="endArrow=open;html=1;endSize=12;startArrow=diamondThin;startSize=14;startFill=1;align=left;verticalAlign=bottom;exitX=1.002;exitY=0.109;exitDx=0;exitDy=0;exitPerimeter=0;entryX=-0.004;entryY=0.087;entryDx=0;entryDy=0;entryPerimeter=0;" edge="1" parent="1" source="19" target="14">
                    <mxGeometry x="-0.867" y="11" relative="1" as="geometry">
                        <mxPoint x="600" y="210" as="sourcePoint"/>
                        <mxPoint x="680" y="321" as="targetPoint"/>
                        <mxPoint as="offset"/>
                    </mxGeometry>
                </mxCell>
                <mxCell id="26" value="Supplier" style="swimlane;fontStyle=0;childLayout=stackLayout;horizontal=1;startSize=26;fillColor=none;horizontalStack=0;resizeParent=1;resizeParentMax=0;resizeLast=0;collapsible=1;marginBottom=0;" vertex="1" parent="1">
                    <mxGeometry x="540" y="50" width="140" height="156" as="geometry"/>
                </mxCell>
                <mxCell id="27" value="_id: Objectid" style="text;strokeColor=none;fillColor=none;align=left;verticalAlign=top;spacingLeft=4;spacingRight=4;overflow=hidden;rotatable=0;points=[[0,0.5],[1,0.5]];portConstraint=eastwest;" vertex="1" parent="26">
                    <mxGeometry y="26" width="140" height="26" as="geometry"/>
                </mxCell>
                <mxCell id="28" value="name: String" style="text;strokeColor=none;fillColor=none;align=left;verticalAlign=top;spacingLeft=4;spacingRight=4;overflow=hidden;rotatable=0;points=[[0,0.5],[1,0.5]];portConstraint=eastwest;" vertex="1" parent="26">
                    <mxGeometry y="52" width="140" height="26" as="geometry"/>
                </mxCell>
                <mxCell id="29" value="address: String" style="text;strokeColor=none;fillColor=none;align=left;verticalAlign=top;spacingLeft=4;spacingRight=4;overflow=hidden;rotatable=0;points=[[0,0.5],[1,0.5]];portConstraint=eastwest;" vertex="1" parent="26">
                    <mxGeometry y="78" width="140" height="26" as="geometry"/>
                </mxCell>
                <mxCell id="30" value="phone: String" style="text;strokeColor=none;fillColor=none;align=left;verticalAlign=top;spacingLeft=4;spacingRight=4;overflow=hidden;rotatable=0;points=[[0,0.5],[1,0.5]];portConstraint=eastwest;" vertex="1" parent="26">
                    <mxGeometry y="104" width="140" height="26" as="geometry"/>
                </mxCell>
                <mxCell id="31" value="country: String" style="text;strokeColor=none;fillColor=none;align=left;verticalAlign=top;spacingLeft=4;spacingRight=4;overflow=hidden;rotatable=0;points=[[0,0.5],[1,0.5]];portConstraint=eastwest;" vertex="1" parent="26">
                    <mxGeometry y="130" width="140" height="26" as="geometry"/>
                </mxCell>
                <mxCell id="32" value="n" style="endArrow=open;html=1;endSize=12;startArrow=diamondThin;startSize=14;startFill=1;align=left;verticalAlign=bottom;exitX=0.5;exitY=0;exitDx=0;exitDy=0;entryX=0.49;entryY=1.134;entryDx=0;entryDy=0;entryPerimeter=0;" edge="1" parent="1" source="14" target="31">
                    <mxGeometry x="-0.6551" y="-10" relative="1" as="geometry">
                        <mxPoint x="610" y="220" as="sourcePoint"/>
                        <mxPoint x="770" y="220" as="targetPoint"/>
                        <mxPoint as="offset"/>
                    </mxGeometry>
                </mxCell>
                <mxCell id="34" value="" style="shape=stencil(lZ3ZsiQ3jkS/Rq9p3Jfnnpn/kFlXt2Tdo5JJ6ln+fsiRRd5M96jDum9agLwRDBIEHIDjh/yX33/68dcvP6Tw+x+/ff3Hl//++a9//PRD/rcfUvr5l5++/PbzH+uffsj//kP+y9++/vbl7799/dcvf/3z33/9cUvuf/rPr/+1f+F//tQLjx63Ugr/++d/aI9S/v8//Mef4v/8+Zc38ZHexPsjjm+Lx0cIb+LjkeHX4yPON/H5yI3EcxLx2Um8tDfxGB5tknx7//m4fqGSfM/v8ukRI8kPk+fnmfI8+ZHgfdMjVJUfsJzp+pRP+fKogeRl+WN9RHyeMlR+4u+38i7fHi2T/HjfbLE/Mj7PlP0wHgHWJz/CUPmeSD6+H63I23nJvz//Om0B1mc9T1H5xu/b3+UjnsZ0fZ2n/NpR+PtiG/Z/we8l52W9UYPztfbD+/qncu2ob8m/7/9UH5l/X9azPfJn9ucyhgnOr8sva4jr02R91v7h33+Xz+FRYX+6/LJg/L4iny6L9J3y5RFxv6l8PexPlW+P+in5/uifkh+fe98SrhP6nfLr/kP7rPLpkT4ln0/7X+TX+frU+9bDfaHy63t96nn6o8F96vLjOnHfKT8fle3Ju3wNj4L2UOXj5857TZ87L0t+fur386N/6n3L5+xzXfsB16e/2+faDus/RP60H+R+r+N6wu+73+tE+7C8r/f7sYWDvPhLLeJ9nS9v8ymf0L7ly9o/5TPut3yt9lO+PALKt6DyDf0Zla+PxM9TVX6gfyX+ZFuxC+yHfP3fF3mKF/J1+zzlO96n+bLGT/lx7ahv+Xtd5Xk/yP5sE/3/JZ9Unu3DfI++ejicx/n+PD0+Ep/HrvKD5eX3V8TBzzNVfoC/tNbnfT/0jL+fr9PxIj/wPIb3/dDLYf/L913ytP4WXyx5iqeW/Pv56hW/l9m3JV/x+WX/L3ny//PlXTzlGXtY9iGqfIf7aMnLfuiH+E7uryXP+0HuryXP8aDEp30c7O3MKk/3b9F4v0/cb8X2w8TvW+z7Ttz/5Vq9J/gTrr/4DXm5v5Z8gfNbLmv5Ij/gexXFW8ayVyBf9byPJ8LzDfkkz58uPOsb8nIfjYT+SdX7dGRcz6r7bTxv5G/Ii/0c5bpBbuXb5Z2+yFO80K7o+EW+w/o0tQ+D8aWm/sOSp/iiXWjbizzZz3bdVk/5hvdvU/9zydP37WrPR8f37dfufZHn3xf8c4xHgvPbFT9Z8mRvu/rng+3PsPM10X6O69eecG9A8Hno+VryFA+OK5p4yke8L8Zl/V7kK9yn8xGmyk94nnmhl0/5hP7tVHxpyZM9nHq/TI4XYlADtxQ6Ae5BT+QsaLGWghyZpUBHOMYrInpRoDWN6XrFp0Lll35iJi8KdAvEYi+9DCVs61gvVP5Fge692O0gtOvo3SsMTfLMzp560NBkKSDUGi/k50WBbNEO/k0Bg4HlPdkjIRpX1b2Z43KQ7hXs/lgKifCsoQ7+UkCAbV54yIsCfekczWQMhDxyUp93KSAmUTRDtxQoSbQx2aQKdOJysy89LkfjXmHYh5tXpHavMPWi2gqwNTbOmj+l4Ms60XUvRWPLk0K9+wvkLHczZBPRhjIVDlgKkdzZoPjfViB/Nln6dqKDsfFH+wuUcalr89myUkqtdtveE2PM+kzpvSqQk7piFPsLFEW1dLO9K7xDszhwK9AjVTtxE61G6xeO/apA7/D8rq8K5Bqui90+HGGHPd0sKyrkmw9HaFovGr6f/sJa1vapl253f4Ec7q4RxklhmL80r6KFe5c13G0+8qGjuT8TndwVw+otOjEqXEGp79ZMf6Fo3LbtEvnp1RTGBS3eKzSLBMb17e8Vuu3WgVDxiqQkdt6+BuylpSDJ9e3+0CM9zdarRwYKO5iyv0DlEzPYsjK+tsIdKXBYfis5J0uhmKNLiNxSUE+g4cU+o524iqZyh2xNFShIXzGYoLqzYJXP9Fu0nP5CEuud0WoshRxUgSKUaZU+67/gKt0pBH5pNTMRsarp98Nzd31TQVYpnP6CGrKA/tJek/eXHnw/TCuAWQoUHk/LgC6zQPf0tBTKNjz04SwHsTEl2hr5Mr2voBVtPssSbGtL2zsbjNwwLJuWJxgVrfc+LlkVKI5bCookM+qwTrAua8H7YSnIedhYLB2gYu+QeVmLVhMuBXLWZ1XUYV31BN8uBcFmlgJd7EtBALXBCcJt3Icq4IdraiqXQ0QgwkZiTIGAkNlukhJUBLShG8mKsrO+L9miCgTmbKzH8k6UV9/3/lQFcuGWglQS7MwWP1K3VBsa467Xbu9sBIaG+Nsbp906dGssBdxLBi93Th9sl9Dyr4Ws97gctqdC4d06LCNZsGJwmle5U9r8F8ZUBfJb51Az0xMWGW6FrAp47Y6bsgIqk/lAk54KAetAPpCYFwUCET6QmEthV17QeZjqey8FdHSnXrttYK59Pm3EiwIVD24Fqcbh7PZWaKpAcNGNQuMIxVCH1tjXmFahVdlfmmo1lsLhL0gOa9dEkYKdh8ZFsfvEyTtkfoehN9BSOBygKt8hsTEemkhsCbHKDYu/W40W+RYdVnoVsJRnKyRVQF9jKJJYOfl4q3D4cPJIdSAweKPQ2ascCgEvhXx4B1FoJ2Ms36E2BJlvFCrWyN68dGGfb2jWeylg4DfUkNXMuMbQPpiaTidOEvc1sjG2zPdSOPhLU96BU9/TcvFlYppze2SiMBCVnl2j3dLZwTKQeSmg1bAMRzl4ZF0/XOFU7bTsQKkcgDc1xoVL9JaCpHU+MkPfUpCkf8nsJDZN1ZZD1r8qJlASL2u9vutTIZ4CP4FPCxeGLgWpdC5cqbFj0aEK1Jq0QTrp5ZjYq7AUJFu2mz9olYr6rUsBzUzRI5oPB6ho0JQ5i78VrEEGHayiUPxSQLjIoPhc2fd2hYJQ/K0CnoeiVZw5s+9tZYRLAYOmomFZPpy4oqh05kLmm78QOSzzl45Xrc73Lmtgc29bI02sE9gKURXQtrrCOH1pyfilzt6MK7QTbOcKGO26QmX41F+6cg7Fv0Nhr9IVMke7dwqH3aoKiV24OwUqFLxRiHw/+LJGbKW9UQjsL9mXjpPTOncKCAy6wmDUwRU6uz93Cp98pHZcJWlxr5wScYWCxUK3Chj4uQJ3Hd8opNOV5QoHT0C2d4zYmDeLdcZHDgeKFp5Fbu1ZCpotw2zzzldIPvu0MTRtxAc6G4yIrUw7pSPQKSc3LMnUsHVx58ne16eyd2ipvspbwnK6hR2AqCezYGvDTpa+2ztuZZpBqwkyUmGMac4tBunDkDrOLY2hGzpxVcoTSfmQp/UZXfcDg9CjaWlDxEt2WK9IRCd1FOPmwIrfYb1n8Ypc7+WjcWdgZcYIah8i3n7dAG6+wHcllFg4LHnbyR39faob71YSFNGL2sVi9jwknzVmPsgnzatwDmPJSw7jIB+13uiwPkFBM5ZvzzLM75R/ujLfKd+1Fyhi/rw1zZ9HDPd3Z7I+T6GazKKF2ZFbn5JmeSPa/2aFTBGR3Y126/NQa1I1exu5UtfSqRxf1m7cQ1w6bL1nEWuearmRpzrgonBORPC+GrdO5Fpp51rC+27jvfr7FPbV4PYcy8mn3xcU/xTLfgf0cYvVFAT0D0tTxDvgfVesODcg2vABkr7Iw/4sSc9vwE6mEtT+Bwyt8vTnQeoJy2oEDEpyV3sbEGfITe0tF79tGC+KPLaiF+ViOMhnzaYx/JSjgtaBqTCC+ocHKiTrzePW4xVOVJMnqhMrPAroP28UyH6fqBuK+vOBqXuM2yJga2FKmqs/PE9Ue3tYz+D2hPylOLWElfdPtMwn7//YNS0ZMAUYm/rzTMUWLb0QMPscn42WL/LEu2jcPQHju91HqeeLKo2i1X5HrrNWKjm+Tq1+hr2ZoTmziJuzG9yCBXfdXWdCN+2kJ/aUjDSP+5PUr02Y0fFEAveIOSpAVioraJoxaM/qoxbcBFlDRi6ZfeZgPsQPZG1SqIAOtpWbVz6vRjWE8ES04iy2Zpq2ZrAqaN6Qfz3o1dYwdArqWTQ8fEE3MCPIwep68DQFtQTcem2oVkOvOuhpquj0Bu3rrmxTjX4MXeSobBqVG98VsGkYEETj7sLy82g1Zxju3YhT2+fNwxQU1/I0LDaL6nozi2RU5Pd0+Ibudz58zcR5A+uzk8G+OR7UPXt3+Fhcn50SvjeGg8qBzCxVjFA/KR4V/2HqUaM7OLBOaOco52yTBvtc4ZY01sxMvaBQY8bDl9VwMOmrAdUJN3DRKjLG5atRJGPZT7W0F6IITY82g9TN+MEx5urqGDKENhzhpdzs0EZG5sKaWjDC1JXxGY69xDccTxSLv8mjSdorxPFiNK42jnejdTtxen/Fc1Hfl/DRTcmieBXy4ltRKvcWrng36fPTfZysmTcw90nQAtOA8Vyy/CRTlSfLrx6okYsGXQEDl20YdPtT4ZpzkfH6p64ljUxlt2udTJ7wreDxN+2fnDQECOhwZeOePcgXveAO8lV7mwK2Z+WmnndgaszueCpSn97gPRTebbxW9zN5RsViqoAuaUluTyjML3brMr5YiuZvAwZtxa46xkeLUU4x/lqsW4Ltf7HWnoD53hp8PQn/rkY9EBA32VQ2Kk+lhdX6pjk/sPNRiqdSi3K9wwtpfZrLE2hVu78v4YU7H6jPT+5Gvfm+FNw2Cw4COtgtKh7JLX0t2SwVvL+a3Uecf9v5ZMNHKb/d9H6MeN/tfLjmG8kf2Pl2dT4ppLjL59N9elcvQMDLXT0Cyt/UO9B93W12Ced7u3HzRrzfdz2Irc+BO0jz53S/73qWzwQLu17GEHN6HusfjTi6ZATNB3I9woiKfXFj/sheX0A1x6N4MEX5q1E138WjnEbT+4upPTfphb4v5RSG9WdFJhiylst4Yv8R/58rrDfzquYVsKrcWM+eBS738lbvcGgbt/qXA5vFTb3kiUmliDy2Dpj/XPG8zKwIZ+VwPGt+mxMG07m4ude6aPzeuZ+2qP1h3snd/SRkObw+lt/m0QS7f0vu00O/StUFilxRNI3X8lSE7SblUOZ9p4CF5K5wKFV3hUMx/J0Cltu7wqGg3xUOLQOW4Tw1JdwpYNuDKxwaK1zh0Lpxp4DNIZ7WPbSfVPXPTg0uVaH/UwuNKxyadO4UsA3IFQ6NRncK2MrkCodmKV/WQzuWf7hDw5crHFrK7hSwac0VDm1x/tKHxjtXOLT2+Xc4NA9WDYdO7YlVawtODZA2fOHUYlm1AvnUxOl/4diYLT7VqRHVX/rQ6uoKh2Za/w6Hdl3/C4eGYH/pxnQOvqztdAOJ65wP1FFV55DsxmzefJKfzjzmdhpB72Gy4LRRHhuw5EeSfpfCgP5sClgXRuA2lZrU2xwcrKbfofA4ldk0BigJM5XTBnQUHkB6w/9woAYxGHQpYF+c9S2Uww1kiYZS+Tx0o6So7GsYl8im1aCtMRTb3MQdTG8iYN+mBjmQwEj0NthqWDhcmDN4Wr9Y5YTMHLr56sHBGtbhd7hQjNipJnYdhvaQbCIbfgcBwc5UOWI1zmQ8OmLxSPcjZG1nQiFXOPHHicKRFElC7zPtkiociZ2kWaUy8/5mFQuqcOBe01F/gU3l1PzDJthiDjxlRmMEbU41lS0x8800zq/EPt+0Oq/MHKnTBl5m7oKeek+3wwGaegNtOjh+aeHF34Rz/KXlxLVDwDENWWpcahCClZceeflkf5+Z/+SMNp7EPG1UURvc3zy1yKkNbnC2huXGw7ZvPvUBwpqaMujcAzKn9rR2bsqaU5NgnbsqPyYkPBV44vCtQuf9rX34GRP3H4MnXhQOH06c7154StZUusPNqnqwM/LSFYuTtiUzotcDwajYyt6YcNcaJJYCxpZD7cyebck3u26+zl96aNTUB1syY/7rx2s0mgJGTdb033m8jJPgLQV86W4U1weOeOO0G4GJJrreu+NAFdiM15tbmW8YqyMbsqYx/khHirqgCge03ydXHpAQHR2aT9ijhCiDZ/PuBEdXhRNtjDxSZbpDH39a2QgUjZoGz8veSSP5C0c6K/1wjc+DpbFGZ2KarPf06LysRqwwBmOPlokbPGV7jw8QBR57tRR0rubEAmwnm5mHYDTbwA5uR9xDFt6/9Dw03Nks8skJ7K1gwybR+bYM/2mGiCsceIxtHvYHC9C3FHR+X2Fk0MZpzMJ+qzWlfRiebynoRLTK4a4VTk/uupjWyTsPVEdWyrGvGOYWUi6ozjhFuJkFiQcoKNvCvuqpQdQ8ssns58NnwTId7jAYbnLAsSypT3UjJGQPJzaFw5wssa2HUXYj20DbwzSxdDN4kSYEb1fE/gKukvWF71AQHqkb1vIRbN4r2My1lwD4XsPGuh017ibHUZr9djYdnbnb6Xf42nfz9VDhboIfhU3NgpqtcOD48VXiIksfBIdVpfnmHagMplnZ9uTEZQuaGt0KVAg8tJFlHyGu7J12hLDU2CphDnMOq/XWfMTY9wq3Ey2petia8w6WqRjkOieGHKXfDQqlzveq2OBHFH+vcDfhlUo2bmfIosLdlNpDE4MOAD8o+BRCvlI++KNfFBL3hfigUHKAdgbb7BJ2ziRtgT1M2s3BboiBViMZzrzBESaH0SM6MKhJTbOE29ugdqqqdEqnydPZLpSB9REpKUo2eXLcR0Hwq09GLXA+fr4zp8mwVercJGhQyOTZdNFYjyYPjYpGY7qz3NS0b823hwGV0VqHDwMqYzAnrnIvfrB3KOjEGSy9gQh4hWnRbuY5WTYlNCOAZZ2vO64jrkvFWSbXOls2eyasCet2V534ZfRoHnoJbIg8cwfZNLclj70B6nIP9ki65h4HXyJWpTF4dFVTgH8M5kI0WIyrD5p6L6MjKmalNaPh79v4jMFjTKoBVkxdUNVSDx5yVTUG22S0+Dxi2Hdgie8rpdqj4GVWNZjfZLfwfYuWQXxMkP6GvPgsg3sPiq1PwnupKHnP4DIlx0iZyzcr9eCOovH3PSdBwWa28xLQXhm2ONieZLXnfWJ9hYFsnVEIw9g6+6TJZk8OLJgySK4PTEYky5EOJKkwqrbO5YZJ7X/vzCWordy9c6+7tlrv3CKuv4S8nQmjkrZGLnnKESS9f3vFGDzp/uwVs+DJxqNWTAW5fEF/xp+HZ0YlbaXsnJpKWoh5yJjb9O/OZfc2y/uDrPpb8kXlD78v8kywZ6PCO0+X8v3JKddkowAYcrTz0ibeL0mDjHaIDq1qaaD/afancZiU1P9sDXE6a51r7WAPvcSJv69XOPH+1+qjggk+//3CXCT2/JljbR0OfqhjS8qi2JhL33CkFjBeSwpfVAbp7XzVgf5VUpy38sh4w1Rrw0pzY8Oq9WA/JR6pnKl3+Yz+nstzNcOdPKEQLh8RJ3T5Axexypf5ufUsPKvF5Tv6ky7fDve1yteDv6HyhbmRTf503lU+oT/s8hzvu/yBO+lucuFn3jdzMabLM2GiyzO3nsvzhGSXZ4Y6l48H+6byBy5xlU9cSery43PnfSM2/Pvv9vbAtpm0Vf+DdPj77HMqB/uj1AT5YE90NFA6xCPiDyeeTm3+YTrZW/H3DlxClqA4caUpNVacWD6RjNplHM6vtz8jl5yNkuiIP9j+jFw+7lQhFe/TaPTdFf3/qNRkkVuwoo2aYbza+GOXPJ3HaKNXuIbaRnVFnkVl+a3Iw9aD+quR8eSg6eHI+zlYhRKGg0HDQR6jGzSFyTNxvbcBbdWdOC69mFqOjIJTCTMdr7bgHKizkz47mf3gNMi0i2+ohFlc+KpO4tVeFb+qEUTzyhjJMm8xKTNh+ulg8RyySxzF1z/8+uMfP/35L3/7+Z///P2P377+48vr///b19++/P23r//65a/P//T7Tz/++mX92/8B);lineShape=1;" vertex="1" parent="1">
                    <mxGeometry x="266.17" y="20" width="213.83" height="430.1" as="geometry"/>
                </mxCell>
            </root>
        </mxGraphModel>
    </diagram>
</mxfile>